<svg width="40" height="40" viewBox="0 0 40 40" fill="none" xmlns="http://www.w3.org/2000/svg">
<g clip-path="url(#clip0_3_41)">
<path d="M40 20C40 8.9543 31.0457 0 20 0C8.9543 0 0 8.9543 0 20C0 31.0457 8.9543 40 20 40C31.0457 40 40 31.0457 40 20Z" fill="#1877F2"/>
<path d="M27.5 20.0188C27.5 15.8684 24.14 12.5 20 12.5C15.86 12.5 12.5 15.8684 12.5 20.0188C12.5 23.6579 15.08 26.688 18.5 27.3872V22.2744H17V20.0188H18.5V18.1391C18.5 16.688 19.6775 15.5075 21.125 15.5075H23V17.7632H21.5C21.0875 17.7632 20.75 18.1015 20.75 18.515V20.0188H23V22.2744H20.75V27.5C24.5375 27.1241 27.5 23.9211 27.5 20.0188Z" fill="white"/>
</g>
<defs>
<clipPath id="clip0_3_41">
<rect width="40" height="40" fill="white"/>
</clipPath>
</defs>
</svg>
