<svg width="40" height="40" viewBox="0 0 40 40" fill="none" xmlns="http://www.w3.org/2000/svg">
<g clip-path="url(#clip0_3_38)">
<path d="M40 20C40 8.9543 31.0457 0 20 0C8.9543 0 0 8.9543 0 20C0 31.0457 8.9543 40 20 40C31.0457 40 40 31.0457 40 20Z" fill="#FEE500"/>
<path fill-rule="evenodd" clip-rule="evenodd" d="M20 12.5C14.4386 12.5 11.75 15.8625 11.75 18.7073C11.75 20.8389 13.1782 22.7191 15.3534 23.8364L14.4386 27.0923C14.357 27.381 14.6953 27.6101 14.9547 27.444L18.9669 24.8639C19.3052 24.8959 19.6498 24.9146 20 24.9146C24.5558 24.9146 28.25 22.1356 28.25 18.7073C28.25 15.8625 25.25 12.5 20 12.5Z" fill="black"/>
</g>
<defs>
<clipPath id="clip0_3_38">
<rect width="40" height="40" fill="white"/>
</clipPath>
</defs>
</svg>
